<svg>
    <g xmlns="http://www.w3.org/2000/svg" clip-path="url(#clip0_9220_2262)"><path fill-rule="evenodd" clip-rule="evenodd" d="M12.524 7.952a3.05 3.05 0 00-3.048-3.047H3.381A3.05 3.05 0 00.333 7.952 3.049 3.049 0 003.381 11h6.095a3.05 3.05 0 003.048-3.048z" fill="#F3C03A"/><path fill-rule="evenodd" clip-rule="evenodd" d="M3.381 4.905a3.05 3.05 0 013.048 3.047A3.049 3.049 0 013.38 11 3.049 3.049 0 01.333 7.952a3.05 3.05 0 013.048-3.047z" fill="#F3C03A"/><path fill-rule="evenodd" clip-rule="evenodd" d="M6.494.167a4.127 4.127 0 014.125 4.125 4.127 4.127 0 01-4.125 4.126 4.127 4.127 0 01-4.126-4.126A4.127 4.127 0 016.494.167z" fill="#F3A23A"/><mask id="mask0_9220_2262" style="mask-type:alpha" maskUnits="userSpaceOnUse" x="2" y="0" width="9" height="9"><path d="M6.494.167a4.127 4.127 0 014.125 4.125 4.127 4.127 0 01-4.125 4.126 4.127 4.127 0 01-4.126-4.126A4.127 4.127 0 016.494.167z" fill="#fff"/></mask><g mask="url(#mask0_9220_2262)"><path fill-rule="evenodd" clip-rule="evenodd" d="M3.381 4.905a3.05 3.05 0 013.048 3.047A3.049 3.049 0 013.38 11 3.049 3.049 0 01.333 7.952a3.05 3.05 0 013.048-3.047z" fill="#FFCF38"/></g><path fill-rule="evenodd" clip-rule="evenodd" d="M9.476 2.62a4.192 4.192 0 014.19 4.19A4.192 4.192 0 019.477 11a4.192 4.192 0 01-4.19-4.19 4.192 4.192 0 014.19-4.19z" fill="#F3823A"/><mask id="mask1_9220_2262" style="mask-type:alpha" maskUnits="userSpaceOnUse" x="5" y="2" width="9" height="9"><path d="M9.476 2.62a4.192 4.192 0 014.19 4.19A4.192 4.192 0 019.477 11a4.192 4.192 0 01-4.19-4.19 4.192 4.192 0 014.19-4.19z" fill="#fff"/></mask><g mask="url(#mask1_9220_2262)"><path fill-rule="evenodd" clip-rule="evenodd" d="M6.494.167a4.127 4.127 0 014.125 4.125 4.127 4.127 0 01-4.125 4.126 4.127 4.127 0 01-4.126-4.126A4.127 4.127 0 016.494.167z" fill="#F26C32"/></g></g>
    <defs xmlns="http://www.w3.org/2000/svg"><clipPath id="clip0_9220_2262"><path fill="#fff" transform="translate(.333 .167)" d="M0 0h13.333v10.833H0z"/></clipPath></defs>
</svg>