<svg>
    <path xmlns="http://www.w3.org/2000/svg" fill-rule="evenodd" d="M8 0c4.411 0 8 3.589 8 8a7.1 7.1 0 01-.17 1.647c0 .003-.059.236-.09.337-.197.629-.548 1.149-1.03 1.515a2.666 2.666 0 01-1.613.544 2.672 2.672 0 01-.214-.008 2.575 2.575 0 01-2.003-1.214A4.021 4.021 0 018 12.034 4.039 4.039 0 013.966 8 4.039 4.039 0 018 3.966 4.039 4.039 0 0112.034 8V9.31c.004.783.532 1.1.977 1.136.45.035 1.038-.226 1.243-1.067A6.412 6.412 0 008 1.596a6.412 6.412 0 00-6.405 6.404A6.412 6.412 0 008 14.405a6.38 6.38 0 003.458-1.015l1.048 1.219A7.97 7.97 0 018 16c-4.411 0-8-3.589-8-8s3.589-8 8-8zM5.56 8A2.442 2.442 0 008 10.44 2.442 2.442 0 0010.439 8 2.442 2.442 0 008 5.561a2.442 2.442 0 00-2.44 2.44z"/>
</svg>