<svg>
    <g xmlns="http://www.w3.org/2000/svg" fill="#333" fill-rule="evenodd"><path d="M11.847 8.626l2.302 8.702a1.174 1.174 0 0 1-.82 1.443 1.164 1.164 0 0 1-1.426-.834L9.688 9.58h-.05l-2.211 8.356c-.165.628-.805 1-1.426.834a1.18 1.18 0 0 1-.824-1.443L7.5 8.562a2.948 2.948 0 0 1-.638-1.28l-2.825-.596a1.153 1.153 0 0 1-.26-.088c-.343 1.58-.686 3.16-.923 4.259a.776.776 0 0 1-.553.579.749.749 0 0 1-.757-.236c-.13-.142-.261-.294-.397-.446a4.405 4.405 0 0 1-.985-3.881C.604 4.92 1.23 2.173 1.53.843A.79.79 0 0 1 2.48.24l1.785.407a.81.81 0 0 1 .601.961l-.6 2.748c.081-.001.164.007.246.024l2.792.59a2.897 2.897 0 0 1 2.398-1.276c1.417 0 2.598 1.026 2.857 2.384l4.49.947a1.18 1.18 0 0 1 .902 1.393 1.166 1.166 0 0 1-1.378.913l-4.524-.954c-.063.087-.13.17-.202.25zm-2.145-.811a1.17 1.17 0 0 0 1.163-1.178A1.17 1.17 0 0 0 9.702 5.46a1.17 1.17 0 0 0-1.164 1.177c0 .65.52 1.178 1.164 1.178z"/><path d="M12.441 14.998c0-.549-.523-.998-1.168-.998h-3.11C7.52 14 7 14.45 7 14.998 7 15.55 7.519 16 8.164 16h3.109c.645 0 1.168-.45 1.168-1.002z"/></g>
</svg>