<svg>
    <path xmlns="http://www.w3.org/2000/svg" d="M6.996 1.188v-.129a1.003 1.003 0 0 1 .929-.997c.072-.003.071-.003.143 0 .095.01.187.027.278.06a1.005 1.005 0 0 1 .65.937v.185c.819.13 1.616.403 2.348.791.31.165.609.345.899.542.195.133.384.275.576.413l.095.069a1.245 1.245 0 0 1 .476 1.037 1.259 1.259 0 0 1-.972 1.165c-.29.066-.6.024-.863-.115-.085-.045-.163-.102-.241-.158-.133-.097-.265-.195-.399-.29a13.257 13.257 0 0 0-.247-.165 5.82 5.82 0 0 0-1.672-.741v2.906c.191.047.382.093.572.142l.378.099c.185.052.371.105.555.163.854.27 1.722.639 2.339 1.311a2.917 2.917 0 0 1 .646 1.114c.075.24.121.49.135.741.018.344-.028.691-.116 1.023a4.286 4.286 0 0 1-1.157 1.961 5.054 5.054 0 0 1-1.924 1.144 6.858 6.858 0 0 1-1.418.307c-.002.1-.006.2-.012.3a1.016 1.016 0 0 1-.103.385.997.997 0 0 1-1.894-.427l-.004-.262a6.61 6.61 0 0 1-2.279-.681 5.592 5.592 0 0 1-1.256-.892 5.097 5.097 0 0 1-1.05-1.398c-.126-.252-.238-.515-.237-.802a1.245 1.245 0 0 1 .355-.87 1.262 1.262 0 0 1 1.501-.221 1.271 1.271 0 0 1 .507.525c.032.068.058.138.089.206.087.179.196.344.323.497a3.075 3.075 0 0 0 .655.582 3.76 3.76 0 0 0 1.395.529V8.759c-.815-.239-1.622-.527-2.355-.961-.539-.318-1.038-.724-1.392-1.245a3.017 3.017 0 0 1-.367-.739c-.3-.906-.112-1.929.395-2.725.251-.396.583-.735.966-1.005.806-.57 1.781-.812 2.753-.896zm2 8.086v2.907c.244-.04.485-.1.717-.185.274-.1.536-.236.762-.421.151-.124.285-.27.392-.433.072-.109.167-.39.131-.718-.051-.451-.56-.684-.723-.751a7.362 7.362 0 0 0-.675-.232c-.2-.06-.401-.115-.604-.167zm-2-5.576l-.119.016c-.273.04-.545.102-.801.205-.17.068-.334.155-.475.272-.09.074-.291.311-.317.567-.043.417.283.653.353.705.149.112.311.208.476.294a6.491 6.491 0 0 0 .883.377V3.698z" fill="#333"/>
</svg>