<svg>
    <path xmlns="http://www.w3.org/2000/svg" d="M2.562 5.418l.026-.065a7.213 7.213 0 0 1 3.276-3.699A7.153 7.153 0 0 1 9.212.782h.232a7.223 7.223 0 0 1 3.674 1.089c.113.07.23.141.332.228a1.245 1.245 0 0 1-.325 2.1 1.256 1.256 0 0 1-.903.029 1.58 1.58 0 0 1-.209-.096c-.098-.061-.193-.125-.291-.184a4.72 4.72 0 0 0-6.366 1.47h4.98a1 1 0 0 1 0 2.001H4.621c-.059.479-.044.968.043 1.443H9.53a1 1 0 0 1 0 2H5.554c.358.468.803.868 1.306 1.174.51.31 1.078.521 1.667.619a4.76 4.76 0 0 0 2.015-.1 4.774 4.774 0 0 0 1.989-1.113l.058-.051a1.268 1.268 0 0 1 .705-.279 1.26 1.26 0 0 1 1.262.823 1.242 1.242 0 0 1 .006.831 1.335 1.335 0 0 1-.278.457c-.056.055-.114.108-.172.161a7.201 7.201 0 0 1-5.635 1.788 7.21 7.21 0 0 1-2.613-.826 7.28 7.28 0 0 1-3.187-3.484H2a1 1 0 0 1 0-2h.137a7.327 7.327 0 0 1-.028-1.443H2a1.001 1.001 0 0 1 0-2.001h.562z" fill="#333"/>
</svg>