<svg>
    <path xmlns="http://www.w3.org/2000/svg" fill-rule="evenodd" clip-rule="evenodd" d="M1.125 1.125C0 2.249 0 4.06 0 7.68v.64c0 3.62 0 5.43 1.125 6.555C2.249 16 4.06 16 7.68 16h.64c3.62 0 5.43 0 6.555-1.125C16 13.751 16 11.94 16 8.32v-.64c0-3.62 0-5.43-1.125-6.555C13.751 0 11.94 0 8.32 0h-.64C4.06 0 2.25 0 1.125 1.125zM2.75 5c.087 4.16 2.167 6.66 5.813 6.66h.207V9.28c1.34.133 2.353 1.113 2.76 2.38h1.893c-.52-1.893-1.886-2.94-2.74-3.34.854-.493 2.054-1.693 2.34-3.32h-1.72c-.373 1.32-1.48 2.517-2.533 2.63V5H7.05v4.61C5.983 9.343 4.637 8.053 4.577 5H2.75z"/>
</svg>