<svg>
    <path fill-rule="evenodd" clip-rule="evenodd" d="M0 1.735C0 1.047 0 .703.162.455A1 1 0 0 1 .454.161C.704 0 1.047 0 1.735 0s1.032 0 1.28.162a1 1 0 0 1 .293.292c.162.25.162.593.162 1.281s0 1.032-.162 1.28a1 1 0 0 1-.292.293c-.249.162-.593.162-1.281.162s-1.032 0-1.28-.162a1 1 0 0 1-.293-.292C0 2.767 0 2.423 0 1.735zM0 7c0-.688 0-1.032.162-1.28a1 1 0 0 1 .292-.293c.25-.162.593-.162 1.281-.162s1.032 0 1.28.162a1 1 0 0 1 .293.292c.162.25.162.593.162 1.281s0 1.032-.162 1.28a1 1 0 0 1-.292.293c-.249.162-.593.162-1.281.162s-1.032 0-1.28-.162a1 1 0 0 1-.293-.292C0 8.032 0 7.688 0 7zm.162 3.984C0 11.233 0 11.577 0 12.264c0 .689 0 1.033.162 1.282a1 1 0 0 0 .292.292c.25.162.593.162 1.281.162s1.032 0 1.28-.162a1 1 0 0 0 .293-.292c.162-.25.162-.593.162-1.281s0-1.032-.162-1.281a1 1 0 0 0-.292-.292c-.249-.162-.593-.162-1.281-.162s-1.032 0-1.28.162a1 1 0 0 0-.293.292zm5.103-9.249c0-.688 0-1.032.162-1.28a1 1 0 0 1 .292-.293C5.968 0 6.312 0 7 0c.689 0 1.033 0 1.282.162a1 1 0 0 1 .292.292c.162.25.162.593.162 1.281s0 1.032-.162 1.28a1 1 0 0 1-.292.293c-.25.162-.593.162-1.281.162s-1.032 0-1.28-.162a1 1 0 0 1-.293-.292c-.162-.249-.162-.593-.162-1.281zm.162 3.984c-.162.25-.162.593-.162 1.281s0 1.032.162 1.28a1 1 0 0 0 .292.293c.249.162.593.162 1.28.162.689 0 1.033 0 1.282-.162a1 1 0 0 0 .292-.292c.162-.249.162-.593.162-1.281s0-1.032-.162-1.28a1 1 0 0 0-.292-.293c-.25-.162-.593-.162-1.281-.162s-1.032 0-1.28.162a1 1 0 0 0-.293.292zm-.162 6.546c0-.688 0-1.032.162-1.281a1 1 0 0 1 .292-.292c.249-.162.593-.162 1.28-.162.689 0 1.033 0 1.282.162a1 1 0 0 1 .292.292c.162.249.162.593.162 1.28 0 .689 0 1.033-.162 1.282a1 1 0 0 1-.292.292C8.03 14 7.688 14 7 14s-1.032 0-1.28-.162a1 1 0 0 1-.293-.292c-.162-.25-.162-.593-.162-1.281zM10.692.455c-.162.248-.162.592-.162 1.28 0 .688 0 1.032.162 1.28a1 1 0 0 0 .292.293c.25.162.593.162 1.281.162s1.032 0 1.28-.162a1 1 0 0 0 .293-.292C14 2.767 14 2.423 14 1.735s0-1.032-.162-1.28a1 1 0 0 0-.292-.293C13.297 0 12.953 0 12.265 0s-1.032 0-1.28.162a1 1 0 0 0-.293.292zM10.53 7c0-.688 0-1.032.162-1.28a1 1 0 0 1 .292-.293c.25-.162.593-.162 1.281-.162s1.032 0 1.28.162a1 1 0 0 1 .293.292C14 5.97 14 6.312 14 7s0 1.032-.162 1.28a1 1 0 0 1-.292.293c-.249.162-.593.162-1.281.162s-1.032 0-1.28-.162a1 1 0 0 1-.293-.292c-.162-.249-.162-.593-.162-1.281zm.162 3.984c-.162.249-.162.593-.162 1.28 0 .689 0 1.033.162 1.282a1 1 0 0 0 .292.292c.25.162.593.162 1.281.162s1.032 0 1.28-.162a1 1 0 0 0 .293-.292c.162-.25.162-.593.162-1.281s0-1.032-.162-1.281a1 1 0 0 0-.292-.292c-.249-.162-.593-.162-1.281-.162s-1.032 0-1.28.162a1 1 0 0 0-.293.292z" fill="#A5A7AD"></path>
</svg>